<svg width="80" height="106" viewBox="0 0 80 106" fill="none" xmlns="http://www.w3.org/2000/svg">
<path d="M32 91C30.3431 91 29 89.6569 29 88V9C29 7.34315 30.3431 6 32 6C33.6569 6 35 7.34315 35 9V88C35 89.6569 33.6569 91 32 91Z" fill="#240448"/>
<path d="M15 88C15 89.6569 13.6569 91 12 91C10.3431 91 9 89.6569 9 88V13V12.5V9.5C9 7.84315 10.3431 6.5 12 6.5C13.6569 6.5 15 7.84315 15 9.5V88Z" fill="#240448"/>
<path fill-rule="evenodd" clip-rule="evenodd" d="M20.754 4.86802C18.9539 5.35503 18 6.96802 18 8.83284V87C18 89.2091 19.7909 91 22 91C24.2091 91 26 89.2091 26 87V8.90013C26 6.203 23.3575 4.16365 20.754 4.86802Z" fill="#240448"/>
<path fill-rule="evenodd" clip-rule="evenodd" d="M43.9274 98.5826C43.672 95.8871 41.6288 94 39.0749 94H4.85243C2.55383 94 0.255235 95.887 0 98.5826H43.928H43.9274Z" fill="#240448"/>
<path fill-rule="evenodd" clip-rule="evenodd" d="M0 100H44V106H0V100Z" fill="#240448"/>
<path fill-rule="evenodd" clip-rule="evenodd" d="M49.6474 0.300005C46.5059 0.100002 43.0409 0 39.2526 0H1V4.35H2.38596C5.36395 4.35 9.89466 4.40344 13.5477 4.44652C16.0152 4.47563 18.0823 4.50001 19 4.50001C21.5045 4.50001 21.9182 4.84847 21.9865 7H23.3465L23.1754 4.50001L41.886 4.35C45.0275 4.35 47.9842 4.9 50.7561 6C53.6205 7.1 56.1152 8.7 58.2404 10.8C60.3655 12.9 62.0287 15.45 63.2298 18.45C64.431 21.45 65.0316 24.9 65.0316 28.8C65.0316 32.1 64.4772 35.05 63.3684 37.65C62.352 40.15 60.9199 42.3 59.0719 44.1C57.3164 45.8 55.2374 47.1 52.8351 48C50.4328 48.9 47.8918 49.35 45.2123 49.35C44.3807 49.35 43.4567 49.3 42.4404 49.2C41.424 49.1 40.5 49.05 39.6684 49.05C39.0216 49.05 38.3749 49.3 37.7281 49.8C37.1737 50.2 36.8965 50.85 36.8965 51.75C36.8965 52.85 37.6357 53.75 39.114 54.45C40.5924 55.05 43.5953 55.35 48.1228 55.35C52.8351 55.35 57.1316 54.6 61.0123 53.1C64.893 51.6 68.2193 49.6 70.9912 47.1C73.8556 44.5 76.0731 41.45 77.6439 37.95C79.2146 34.45 80 30.65 80 26.55C80 22.75 79.3532 19.45 78.0596 16.65C76.8585 13.75 75.2415 11.3 73.2088 9.30001C71.176 7.3 68.8661 5.7 66.2789 4.50001C63.6918 3.2 61.0585 2.2 58.3789 1.5C55.7918 0.800003 52.8813 0.400004 49.6474 0.300005Z" fill="#240448"/>
<path d="M30 4.45C26.8 4.45 25.8333 9 26 11.5L22 4L30 4.45Z" fill="#240448"/>
<path d="M14 4.45C17.2 4.45 18.1667 9 18 11.5L22 4L14 4.45Z" fill="#240448"/>
</svg>
